<?xml version="1.0" encoding="UTF-8"?><svg id="_レイヤー_2" xmlns="http://www.w3.org/2000/svg" viewBox="0 0 433.54 433.54"><defs><style>.cls-1{fill:#c8dbbe;}.cls-2{fill:#665a48;font-family:Montserrat-Bold, Montserrat;font-size:72px;font-weight:700;}.cls-3{fill:none;stroke:#9f8772;stroke-miterlimit:10;stroke-width:10px;}</style></defs><g id="_レイヤー_1-2"><circle class="cls-1" cx="216.77" cy="216.77" r="216.77"/><path class="cls-3" d="m203.94,92.87c15.43,15.43,12.63,43.26,12.63,43.26,0,0-27.83,2.81-43.26-12.63s-12.63-43.26-12.63-43.26c0,0,27.83-2.81,43.26,12.63Z"/><path class="cls-3" d="m229.6,92.87c-15.43,15.43-12.63,43.26-12.63,43.26,0,0,27.83,2.81,43.26-12.63,15.43-15.43,12.63-43.26,12.63-43.26,0,0-27.83-2.81-43.26,12.63Z"/><text class="cls-2" transform="translate(33.9 231.69)"><tspan x="0" y="0">Fresh Deli</tspan></text><path class="cls-3" d="m75.04,171.41v-12.48c0-12.48,10.12-22.6,22.6-22.6h238.27c12.48,0,22.6,10.12,22.6,22.6v12.48"/><path class="cls-3" d="m358.5,242.51v45.7c0,6.78-10.12,12.28-22.6,12.28H97.63c-12.48,0-22.6-5.5-22.6-12.28v-45.7"/><rect class="cls-3" x="46.69" y="300.49" width="340.16" height="28.35" rx="14.17" ry="14.17"/></g></svg>